<svg xmlns="http://www.w3.org/2000/svg" viewBox="0 0 820 432" width="820" height="432" role="img" aria-label="Teme v relevantni medijski pokritosti">
<rect width="100%" height="100%" fill="#faf8f3"/>
<text x="24" y="30" fill="#1c1917" font-family="ui-sans-serif, system-ui, sans-serif" font-size="16" font-weight="700">Teme v relevantni pokritosti</text>
<text x="24" y="62" fill="#1c1917" font-family="ui-sans-serif, system-ui, sans-serif" font-size="12">Družine in družinsko življenje</text>
<text x="796" y="62" fill="#1c1917" text-anchor="end" font-family="ui-sans-serif, system-ui, sans-serif" font-size="12" font-weight="600">227 (70 %)</text>
<rect x="24" y="68" width="772" height="12" rx="3" fill="#e7e5e0"/>
<rect x="24" y="68" width="540.4" height="12" rx="3" fill="#2f6f4e"/>
<text x="24" y="108" fill="#1c1917" font-family="ui-sans-serif, system-ui, sans-serif" font-size="12">Vzgoja in izobraževanje</text>
<text x="796" y="108" fill="#1c1917" text-anchor="end" font-family="ui-sans-serif, system-ui, sans-serif" font-size="12" font-weight="600">29 (9 %)</text>
<rect x="24" y="114" width="772" height="12" rx="3" fill="#e7e5e0"/>
<rect x="24" y="114" width="69.5" height="12" rx="3" fill="#2f6f4e"/>
<text x="24" y="154" fill="#1c1917" font-family="ui-sans-serif, system-ui, sans-serif" font-size="12">Človekovo dostojanstvo in življenje (spočetje–naravna sm…</text>
<text x="796" y="154" fill="#1c1917" text-anchor="end" font-family="ui-sans-serif, system-ui, sans-serif" font-size="12" font-weight="600">21 (6 %)</text>
<rect x="24" y="160" width="772" height="12" rx="3" fill="#e7e5e0"/>
<rect x="24" y="160" width="46.3" height="12" rx="3" fill="#2f6f4e"/>
<text x="24" y="200" fill="#1c1917" font-family="ui-sans-serif, system-ui, sans-serif" font-size="12">Zakonska zveza in politika v podporo zakonu</text>
<text x="796" y="200" fill="#1c1917" text-anchor="end" font-family="ui-sans-serif, system-ui, sans-serif" font-size="12" font-weight="600">19 (6 %)</text>
<rect x="24" y="206" width="772" height="12" rx="3" fill="#e7e5e0"/>
<rect x="24" y="206" width="46.3" height="12" rx="3" fill="#2f6f4e"/>
<text x="24" y="246" fill="#1c1917" font-family="ui-sans-serif, system-ui, sans-serif" font-size="12">Rodnost, rojstva in spodbude za otroke</text>
<text x="796" y="246" fill="#1c1917" text-anchor="end" font-family="ui-sans-serif, system-ui, sans-serif" font-size="12" font-weight="600">13 (4 %)</text>
<rect x="24" y="252" width="772" height="12" rx="3" fill="#e7e5e0"/>
<rect x="24" y="252" width="30.9" height="12" rx="3" fill="#2f6f4e"/>
<text x="24" y="292" fill="#1c1917" font-family="ui-sans-serif, system-ui, sans-serif" font-size="12">Skrb za bolne in starejše</text>
<text x="796" y="292" fill="#1c1917" text-anchor="end" font-family="ui-sans-serif, system-ui, sans-serif" font-size="12" font-weight="600">8 (2 %)</text>
<rect x="24" y="298" width="772" height="12" rx="3" fill="#e7e5e0"/>
<rect x="24" y="298" width="15.4" height="12" rx="3" fill="#2f6f4e"/>
<text x="24" y="338" fill="#1c1917" font-family="ui-sans-serif, system-ui, sans-serif" font-size="12">Pornografija in družbene posledice</text>
<text x="796" y="338" fill="#1c1917" text-anchor="end" font-family="ui-sans-serif, system-ui, sans-serif" font-size="12" font-weight="600">3 (1 %)</text>
<rect x="24" y="344" width="772" height="12" rx="3" fill="#e7e5e0"/>
<rect x="24" y="344" width="7.7" height="12" rx="3" fill="#2f6f4e"/>
<text x="24" y="384" fill="#1c1917" font-family="ui-sans-serif, system-ui, sans-serif" font-size="12">Ekonomski pogoji za družine</text>
<text x="796" y="384" fill="#1c1917" text-anchor="end" font-family="ui-sans-serif, system-ui, sans-serif" font-size="12" font-weight="600">2 (1 %)</text>
<rect x="24" y="390" width="772" height="12" rx="3" fill="#e7e5e0"/>
<rect x="24" y="390" width="7.7" height="12" rx="3" fill="#2f6f4e"/>
</svg>
